<mxfile host="app.diagrams.net" modified="2022-03-24T21:04:44.852Z" agent="5.0 (Windows)" etag="_VsEB93kA8oEzvSOqevH" version="16.6.4" type="github">
  <diagram id="MV_lRAETD9M2gRgo7M_Y" name="Page-1">
    <mxGraphModel dx="1824" dy="497" grid="1" gridSize="10" guides="1" tooltips="1" connect="1" arrows="1" fold="1" page="1" pageScale="1" pageWidth="850" pageHeight="1100" math="0" shadow="0">
      <root>
        <mxCell id="0" />
        <mxCell id="1" parent="0" />
        <mxCell id="NArA2TnlN52JIoG0-dIN-1" value="" style="rounded=0;whiteSpace=wrap;html=1;" vertex="1" parent="1">
          <mxGeometry x="-40" y="30" width="1080" height="780" as="geometry" />
        </mxCell>
        <mxCell id="NArA2TnlN52JIoG0-dIN-2" value="" style="rounded=0;whiteSpace=wrap;html=1;" vertex="1" parent="1">
          <mxGeometry x="20" y="70" width="160" height="40" as="geometry" />
        </mxCell>
        <mxCell id="NArA2TnlN52JIoG0-dIN-3" value="" style="rounded=0;whiteSpace=wrap;html=1;fillColor=#d5e8d4;strokeColor=#82b366;" vertex="1" parent="1">
          <mxGeometry x="180" y="70" width="160" height="40" as="geometry" />
        </mxCell>
        <mxCell id="NArA2TnlN52JIoG0-dIN-4" value="" style="rounded=0;whiteSpace=wrap;html=1;" vertex="1" parent="1">
          <mxGeometry x="340" y="70" width="160" height="40" as="geometry" />
        </mxCell>
        <mxCell id="NArA2TnlN52JIoG0-dIN-5" value="" style="rounded=0;whiteSpace=wrap;html=1;" vertex="1" parent="1">
          <mxGeometry x="500" y="70" width="160" height="40" as="geometry" />
        </mxCell>
        <mxCell id="NArA2TnlN52JIoG0-dIN-6" value="" style="rounded=0;whiteSpace=wrap;html=1;" vertex="1" parent="1">
          <mxGeometry x="660" y="70" width="160" height="40" as="geometry" />
        </mxCell>
        <mxCell id="NArA2TnlN52JIoG0-dIN-7" value="" style="rounded=0;whiteSpace=wrap;html=1;" vertex="1" parent="1">
          <mxGeometry x="820" y="70" width="160" height="40" as="geometry" />
        </mxCell>
        <mxCell id="NArA2TnlN52JIoG0-dIN-8" value="Text" style="text;html=1;strokeColor=none;fillColor=none;align=center;verticalAlign=middle;whiteSpace=wrap;rounded=0;" vertex="1" parent="1">
          <mxGeometry x="20" y="75" width="160" height="30" as="geometry" />
        </mxCell>
        <mxCell id="NArA2TnlN52JIoG0-dIN-9" value="Facilities" style="text;html=1;strokeColor=#82b366;fillColor=#d5e8d4;align=center;verticalAlign=middle;whiteSpace=wrap;rounded=0;" vertex="1" parent="1">
          <mxGeometry x="180" y="70" width="160" height="40" as="geometry" />
        </mxCell>
        <mxCell id="NArA2TnlN52JIoG0-dIN-10" value="Text" style="text;html=1;strokeColor=none;fillColor=none;align=center;verticalAlign=middle;whiteSpace=wrap;rounded=0;" vertex="1" parent="1">
          <mxGeometry x="340" y="75" width="160" height="30" as="geometry" />
        </mxCell>
        <mxCell id="NArA2TnlN52JIoG0-dIN-11" value="Text" style="text;html=1;strokeColor=none;fillColor=none;align=center;verticalAlign=middle;whiteSpace=wrap;rounded=0;" vertex="1" parent="1">
          <mxGeometry x="500" y="75" width="160" height="30" as="geometry" />
        </mxCell>
        <mxCell id="NArA2TnlN52JIoG0-dIN-12" value="Text" style="text;html=1;strokeColor=none;fillColor=none;align=center;verticalAlign=middle;whiteSpace=wrap;rounded=0;" vertex="1" parent="1">
          <mxGeometry x="660" y="75" width="160" height="30" as="geometry" />
        </mxCell>
        <mxCell id="NArA2TnlN52JIoG0-dIN-13" value="Text" style="text;html=1;strokeColor=none;fillColor=none;align=center;verticalAlign=middle;whiteSpace=wrap;rounded=0;" vertex="1" parent="1">
          <mxGeometry x="820" y="75" width="160" height="30" as="geometry" />
        </mxCell>
        <mxCell id="NArA2TnlN52JIoG0-dIN-14" value="" style="rounded=0;whiteSpace=wrap;html=1;" vertex="1" parent="1">
          <mxGeometry x="20" y="110" width="960" height="570" as="geometry" />
        </mxCell>
        <mxCell id="NArA2TnlN52JIoG0-dIN-15" value="" style="rounded=0;whiteSpace=wrap;html=1;" vertex="1" parent="1">
          <mxGeometry x="75" y="200" width="850" height="50" as="geometry" />
        </mxCell>
        <mxCell id="NArA2TnlN52JIoG0-dIN-16" value="Select Facility:" style="text;html=1;strokeColor=none;fillColor=none;align=left;verticalAlign=middle;whiteSpace=wrap;rounded=0;" vertex="1" parent="1">
          <mxGeometry x="75" y="150" width="450" height="30" as="geometry" />
        </mxCell>
        <mxCell id="NArA2TnlN52JIoG0-dIN-17" value="" style="html=1;shadow=0;dashed=0;align=center;verticalAlign=middle;shape=mxgraph.arrows2.arrow;dy=0.6;dx=40;direction=south;notch=0;" vertex="1" parent="1">
          <mxGeometry x="840" y="215" width="70" height="20" as="geometry" />
        </mxCell>
        <mxCell id="NArA2TnlN52JIoG0-dIN-18" value="St. Mary&#39;s Hospital" style="text;html=1;strokeColor=none;fillColor=none;align=center;verticalAlign=middle;whiteSpace=wrap;rounded=0;" vertex="1" parent="1">
          <mxGeometry x="90" y="210" width="740" height="30" as="geometry" />
        </mxCell>
        <mxCell id="NArA2TnlN52JIoG0-dIN-19" value="Roles" style="text;html=1;strokeColor=none;fillColor=none;align=center;verticalAlign=middle;whiteSpace=wrap;rounded=0;" vertex="1" parent="1">
          <mxGeometry x="80" y="310" width="60" height="30" as="geometry" />
        </mxCell>
      </root>
    </mxGraphModel>
  </diagram>
</mxfile>
